<?xml version="1.0" encoding="UTF-8" standalone="no"?>
<!-- Created with Inkscape (http://www.inkscape.org/) -->

<svg
   xmlns:dc="http://purl.org/dc/elements/1.1/"
   xmlns:cc="http://creativecommons.org/ns#"
   xmlns:rdf="http://www.w3.org/1999/02/22-rdf-syntax-ns#"
   xmlns:svg="http://www.w3.org/2000/svg"
   xmlns="http://www.w3.org/2000/svg"
   xmlns:sodipodi="http://sodipodi.sourceforge.net/DTD/sodipodi-0.dtd"
   xmlns:inkscape="http://www.inkscape.org/namespaces/inkscape"
   width="12"
   height="12"
   viewBox="0 0 12 12"
   id="svg4140"
   version="1.1"
   inkscape:version="0.91 r13725"
   sodipodi:docname="electric-tower.svg">
  <defs
     id="defs4142" />
  <sodipodi:namedview
     id="base"
     pagecolor="#ffffff"
     bordercolor="#666666"
     borderopacity="1.0"
     inkscape:pageopacity="0.0"
     inkscape:pageshadow="2"
     inkscape:zoom="22.627417"
     inkscape:cx="2.8981365"
     inkscape:cy="6.8384449"
     inkscape:document-units="px"
     inkscape:current-layer="layer1"
     showgrid="false"
     units="px"
     inkscape:showpageshadow="false"
     inkscape:window-width="1243"
     inkscape:window-height="755"
     inkscape:window-x="0"
     inkscape:window-y="0"
     inkscape:window-maximized="1"
     showguides="true">
    <inkscape:grid
       type="xygrid"
       id="grid4688" />
  </sodipodi:namedview>
  <metadata
     id="metadata4145">
    <rdf:RDF>
      <cc:Work
         rdf:about="">
        <dc:format>image/svg+xml</dc:format>
        <dc:type
           rdf:resource="http://purl.org/dc/dcmitype/StillImage" />
        <dc:title></dc:title>
      </cc:Work>
    </rdf:RDF>
  </metadata>
  <g
     inkscape:label="Layer 1"
     inkscape:groupmode="layer"
     id="layer1"
     transform="translate(0,-1040.3622)">
    <path
       style="fill:#000000;fill-opacity:1;fill-rule:evenodd;stroke:#ffffff;stroke-width:0.08404483;stroke-linecap:butt;stroke-linejoin:miter;stroke-miterlimit:4;stroke-dasharray:none;stroke-opacity:1"
       d="m 5.2484765,1041.3455 -0.2676871,2.0335 -1.9261167,0 0,-0.3468 -0.4815291,0 0,1.0807 2.3138014,-0.02 -0.2292262,1.7146 -2.0845752,0 0,0.7777 1.9676541,0 -0.6138342,4.7937 0.8015229,0 0.4261455,-2.7182 0.8445991,0 0.8461375,0 0.4261456,2.7182 0.8015228,0 -0.6138342,-4.7937 1.9676537,0 0,-0.7777 -2.084574,0 -0.2292266,-1.7146 2.3138006,0.02 0,-1.0807 -0.4815283,0 0,0.3468 -1.9261168,0 -0.2676872,-2.0335 -0.7522931,0 -0.7507547,0 z m 0.5922963,1.2628 0.1584584,0 0.1599969,0 0.2692255,2.5747 -0.4292224,0 -0.4276841,0 0.2692256,-2.5747 z"
       id="path4153"
       inkscape:connector-curvature="0" />
  </g>
</svg>
