<svg id="Layer_1" data-name="Layer 1" xmlns="http://www.w3.org/2000/svg" viewBox="0 0 62.8 71.7"><title>null_buoy_papaya</title><path d="M48.49,91.91v-36m-2.2-1.1-14.4,30.9,16.6,6.6,16.6-6.6-14.4-30.9Zm-6.7,15.4,8.8,3.3m.1,0,8.8-3.3m-25.4,21c5.5,3.3,14.4,6.6,16.6,6.6s23.2-11,27.6-13.3l-3.3-1.1m-43.1-4.3c-5.2,1.8-14.4,4.4-14.4,7.7s16.6,12.2,24.3,15.5m19.9-2a158.28,158.28,0,0,0,14.4-9.1M28.59,89l-3.3-2.2m23.2-33.1-2.2,1.1,2.2,1.1,2.2-1.1Z" transform="translate(-14.29 -31.61)" fill="none" stroke="#000" stroke-linecap="round" stroke-linejoin="round" stroke-width="2"/><path d="M48.49,55.91" transform="translate(-14.29 -31.61)" fill="none" stroke="#000" stroke-linecap="round" stroke-linejoin="round" stroke-width="2"/><polyline points="34.2 22.1 34.2 3.3 54.6 1 50.8 7.1 55 12.1 34.2 14.7" fill="none" stroke="#000" stroke-linecap="round" stroke-linejoin="round" stroke-width="2"/><rect x="51.69" y="37.11" width="11.8" height="5.5" transform="translate(-18.16 -25.33) rotate(-6.04)" fill="none" stroke="none"/><g style="isolation:isolate"><g style="isolation:isolate"><path d="M56.14,39.83a3.53,3.53,0,0,1-.09,1.3,2.25,2.25,0,0,1-.58,1,1.66,1.66,0,0,1-1,.49,1.69,1.69,0,0,1-1.12-.26,2.31,2.31,0,0,1-.8-.89,3.43,3.43,0,0,1-.37-1.25,3.09,3.09,0,0,1,.36-1.89,1.73,1.73,0,0,1,1.38-.93,1.68,1.68,0,0,1,1.53.62A3.15,3.15,0,0,1,56.14,39.83Zm-1.8,2a.85.85,0,0,0,.7-.6,2.92,2.92,0,0,0-.26-2.49.85.85,0,0,0-.81-.44.88.88,0,0,0-.71.61,2.74,2.74,0,0,0,.26,2.47A.89.89,0,0,0,54.34,41.8Z" transform="translate(-14.29 -31.61)"/></g><g style="isolation:isolate"><path d="M56.14,39.83a3.53,3.53,0,0,1-.09,1.3,2.25,2.25,0,0,1-.58,1,1.66,1.66,0,0,1-1,.49,1.69,1.69,0,0,1-1.12-.26,2.31,2.31,0,0,1-.8-.89,3.43,3.43,0,0,1-.37-1.25,3.09,3.09,0,0,1,.36-1.89,1.73,1.73,0,0,1,1.38-.93,1.68,1.68,0,0,1,1.53.62A3.15,3.15,0,0,1,56.14,39.83Zm-1.8,2a.85.85,0,0,0,.7-.6,2.92,2.92,0,0,0-.26-2.49.85.85,0,0,0-.81-.44.88.88,0,0,0-.71.61,2.74,2.74,0,0,0,.26,2.47A.89.89,0,0,0,54.34,41.8Z" transform="translate(-14.29 -31.61)" fill="none" stroke="#000" stroke-miterlimit="10" stroke-width="0.3"/></g><g style="isolation:isolate"><path d="M57.11,42.28l-.12-.5a.59.59,0,0,1,.11-.42.48.48,0,0,1,.36-.21.45.45,0,0,1,.38.12.59.59,0,0,1,.17.37,1.83,1.83,0,0,1-.19,1c-.16.34-.32.52-.48.54a.27.27,0,0,1-.24-.07.31.31,0,0,1-.1-.19.77.77,0,0,1,0-.29A.81.81,0,0,0,57.11,42.28Z" transform="translate(-14.29 -31.61)"/><path d="M62.67,39.13a3.53,3.53,0,0,1-.09,1.3,2.25,2.25,0,0,1-.58,1A1.66,1.66,0,0,1,61,42a1.69,1.69,0,0,1-1.12-.26,2.31,2.31,0,0,1-.8-.89,3.41,3.41,0,0,1-.37-1.25A3.09,3.09,0,0,1,59,37.67a1.73,1.73,0,0,1,1.38-.93,1.68,1.68,0,0,1,1.53.62A3.16,3.16,0,0,1,62.67,39.13Zm-1.8,2a.85.85,0,0,0,.7-.6A2.91,2.91,0,0,0,61.31,38a.85.85,0,0,0-.81-.44.88.88,0,0,0-.71.61,2.74,2.74,0,0,0,.26,2.47A.88.88,0,0,0,60.88,41.11Z" transform="translate(-14.29 -31.61)"/></g><g style="isolation:isolate"><path d="M57.11,42.28l-.12-.5a.59.59,0,0,1,.11-.42.48.48,0,0,1,.36-.21.45.45,0,0,1,.38.12.59.59,0,0,1,.17.37,1.83,1.83,0,0,1-.19,1c-.16.34-.32.52-.48.54a.27.27,0,0,1-.24-.07.31.31,0,0,1-.1-.19.77.77,0,0,1,0-.29A.81.81,0,0,0,57.11,42.28Z" transform="translate(-14.29 -31.61)" fill="none" stroke="#000" stroke-miterlimit="10" stroke-width="0.3"/><path d="M62.67,39.13a3.53,3.53,0,0,1-.09,1.3,2.25,2.25,0,0,1-.58,1A1.66,1.66,0,0,1,61,42a1.69,1.69,0,0,1-1.12-.26,2.31,2.31,0,0,1-.8-.89,3.41,3.41,0,0,1-.37-1.25A3.09,3.09,0,0,1,59,37.67a1.73,1.73,0,0,1,1.38-.93,1.68,1.68,0,0,1,1.53.62A3.16,3.16,0,0,1,62.67,39.13Zm-1.8,2a.85.85,0,0,0,.7-.6A2.91,2.91,0,0,0,61.31,38a.85.85,0,0,0-.81-.44.88.88,0,0,0-.71.61,2.74,2.74,0,0,0,.26,2.47A.88.88,0,0,0,60.88,41.11Z" transform="translate(-14.29 -31.61)" fill="none" stroke="#000" stroke-miterlimit="10" stroke-width="0.3"/></g></g></svg>
