<svg xmlns="http://www.w3.org/2000/svg" xmlns:xlink="http://www.w3.org/1999/xlink" version="1.1" x="0px" y="0px" viewBox="0 0 100 125" enable-background="new 0 0 100 100" xml:space="preserve"><path fill="none" stroke="#000000" stroke-width="2" stroke-linecap="round" stroke-linejoin="round" stroke-miterlimit="10" d="  M52.763,63.941V27.898 M50.553,26.792L36.186,57.735l16.577,6.631l16.577-6.631L54.973,26.792H50.553z M43.922,42.264l8.841,3.315   M52.763,45.58l8.841-3.315 M36.186,63.264c5.525,3.315,14.367,6.627,16.577,6.628c2.21,0.002,23.207-11.048,27.628-13.261  l-3.315-1.105 M33.976,51.105c-5.226,1.77-14.367,4.422-14.367,7.735c0,3.317,16.577,12.159,24.312,15.472 M63.813,72.363  c5.942-3.476,9.761-5.673,14.437-9.102 M32.871,61.053l-3.315-2.209 M52.763,25.688l-2.21,1.105l2.21,1.105l2.21-1.105  L52.763,25.688z"/><text x="0" y="115" fill="#000000" font-size="5px" font-weight="bold" font-family="'Helvetica Neue', Helvetica, Arial-Unicode, Arial, Sans-serif">Created by BK</text><text x="0" y="120" fill="#000000" font-size="5px" font-weight="bold" font-family="'Helvetica Neue', Helvetica, Arial-Unicode, Arial, Sans-serif">from the Noun Project</text></svg>